<mxfile host="app.diagrams.net" modified="2023-09-18T12:36:09.742Z" agent="Mozilla/5.0 (Windows NT 10.0; Win64; x64; rv:109.0) Gecko/20100101 Firefox/116.0" etag="hrCbovv_NrfJXxCADCip" version="21.7.4" type="device">
  <diagram id="R2lEEEUBdFMjLlhIrx00" name="Page-1">
    <mxGraphModel dx="740" dy="904" grid="1" gridSize="10" guides="1" tooltips="1" connect="1" arrows="1" fold="1" page="1" pageScale="1" pageWidth="850" pageHeight="1100" math="0" shadow="0" extFonts="Permanent Marker^https://fonts.googleapis.com/css?family=Permanent+Marker">
      <root>
        <mxCell id="0" />
        <mxCell id="1" parent="0" />
        <mxCell id="IF9g0grAU2F7ckSNJoVl-1" value="Personal" style="whiteSpace=wrap;html=1;align=center;" parent="1" vertex="1">
          <mxGeometry x="375" y="330" width="100" height="40" as="geometry" />
        </mxCell>
        <mxCell id="IF9g0grAU2F7ckSNJoVl-2" value="Vorname" style="ellipse;whiteSpace=wrap;html=1;align=center;" parent="1" vertex="1">
          <mxGeometry x="260" y="270" width="100" height="40" as="geometry" />
        </mxCell>
        <mxCell id="IF9g0grAU2F7ckSNJoVl-3" value="Nachname" style="ellipse;whiteSpace=wrap;html=1;align=center;" parent="1" vertex="1">
          <mxGeometry x="375" y="250" width="100" height="40" as="geometry" />
        </mxCell>
        <mxCell id="IF9g0grAU2F7ckSNJoVl-5" value="" style="endArrow=none;html=1;rounded=0;exitX=1;exitY=1;exitDx=0;exitDy=0;entryX=0;entryY=0;entryDx=0;entryDy=0;" parent="1" source="IF9g0grAU2F7ckSNJoVl-2" target="IF9g0grAU2F7ckSNJoVl-1" edge="1">
          <mxGeometry relative="1" as="geometry">
            <mxPoint x="320" y="380" as="sourcePoint" />
            <mxPoint x="480" y="380" as="targetPoint" />
          </mxGeometry>
        </mxCell>
        <mxCell id="IF9g0grAU2F7ckSNJoVl-6" value="" style="endArrow=none;html=1;rounded=0;exitX=0.5;exitY=1;exitDx=0;exitDy=0;entryX=0.5;entryY=0;entryDx=0;entryDy=0;" parent="1" source="IF9g0grAU2F7ckSNJoVl-3" target="IF9g0grAU2F7ckSNJoVl-1" edge="1">
          <mxGeometry relative="1" as="geometry">
            <mxPoint x="320" y="380" as="sourcePoint" />
            <mxPoint x="480" y="380" as="targetPoint" />
          </mxGeometry>
        </mxCell>
        <mxCell id="IF9g0grAU2F7ckSNJoVl-7" value="Personal_NR" style="ellipse;whiteSpace=wrap;html=1;align=center;fontStyle=4;" parent="1" vertex="1">
          <mxGeometry x="240" y="330" width="100" height="40" as="geometry" />
        </mxCell>
        <mxCell id="IF9g0grAU2F7ckSNJoVl-8" value="" style="endArrow=none;html=1;rounded=0;exitX=1;exitY=0.5;exitDx=0;exitDy=0;entryX=0;entryY=0.5;entryDx=0;entryDy=0;" parent="1" source="IF9g0grAU2F7ckSNJoVl-7" target="IF9g0grAU2F7ckSNJoVl-1" edge="1">
          <mxGeometry relative="1" as="geometry">
            <mxPoint x="320" y="380" as="sourcePoint" />
            <mxPoint x="480" y="380" as="targetPoint" />
          </mxGeometry>
        </mxCell>
        <mxCell id="IF9g0grAU2F7ckSNJoVl-9" value="Tische" style="whiteSpace=wrap;html=1;align=center;" parent="1" vertex="1">
          <mxGeometry x="700" y="330" width="100" height="40" as="geometry" />
        </mxCell>
        <mxCell id="IF9g0grAU2F7ckSNJoVl-10" value="Personal_NR" style="ellipse;whiteSpace=wrap;html=1;align=center;" parent="1" vertex="1">
          <mxGeometry x="700" y="250" width="100" height="40" as="geometry" />
        </mxCell>
        <mxCell id="IF9g0grAU2F7ckSNJoVl-11" value="Sitzplaetze" style="ellipse;whiteSpace=wrap;html=1;align=center;" parent="1" vertex="1">
          <mxGeometry x="820" y="280" width="100" height="40" as="geometry" />
        </mxCell>
        <mxCell id="IF9g0grAU2F7ckSNJoVl-13" value="Tisch_Nr" style="ellipse;whiteSpace=wrap;html=1;align=center;fontStyle=4;" parent="1" vertex="1">
          <mxGeometry x="600" y="280" width="100" height="40" as="geometry" />
        </mxCell>
        <mxCell id="IF9g0grAU2F7ckSNJoVl-14" value="" style="endArrow=none;html=1;rounded=0;exitX=1;exitY=1;exitDx=0;exitDy=0;entryX=0.25;entryY=0;entryDx=0;entryDy=0;" parent="1" source="IF9g0grAU2F7ckSNJoVl-13" target="IF9g0grAU2F7ckSNJoVl-9" edge="1">
          <mxGeometry relative="1" as="geometry">
            <mxPoint x="630" y="380" as="sourcePoint" />
            <mxPoint x="790" y="380" as="targetPoint" />
          </mxGeometry>
        </mxCell>
        <mxCell id="IF9g0grAU2F7ckSNJoVl-15" value="" style="endArrow=none;html=1;rounded=0;exitX=0.5;exitY=1;exitDx=0;exitDy=0;entryX=0.5;entryY=0;entryDx=0;entryDy=0;" parent="1" source="IF9g0grAU2F7ckSNJoVl-10" target="IF9g0grAU2F7ckSNJoVl-9" edge="1">
          <mxGeometry relative="1" as="geometry">
            <mxPoint x="630" y="380" as="sourcePoint" />
            <mxPoint x="790" y="380" as="targetPoint" />
          </mxGeometry>
        </mxCell>
        <mxCell id="IF9g0grAU2F7ckSNJoVl-16" value="" style="endArrow=none;html=1;rounded=0;exitX=0;exitY=1;exitDx=0;exitDy=0;entryX=1;entryY=0;entryDx=0;entryDy=0;" parent="1" source="IF9g0grAU2F7ckSNJoVl-11" target="IF9g0grAU2F7ckSNJoVl-9" edge="1">
          <mxGeometry relative="1" as="geometry">
            <mxPoint x="630" y="380" as="sourcePoint" />
            <mxPoint x="790" y="380" as="targetPoint" />
          </mxGeometry>
        </mxCell>
        <mxCell id="IF9g0grAU2F7ckSNJoVl-19" value="Ist Zugeteilt" style="shape=rhombus;perimeter=rhombusPerimeter;whiteSpace=wrap;html=1;align=center;" parent="1" vertex="1">
          <mxGeometry x="520" y="320" width="120" height="60" as="geometry" />
        </mxCell>
        <mxCell id="IF9g0grAU2F7ckSNJoVl-20" value="" style="endArrow=none;html=1;rounded=0;entryX=1;entryY=0.5;entryDx=0;entryDy=0;" parent="1" source="IF9g0grAU2F7ckSNJoVl-19" target="IF9g0grAU2F7ckSNJoVl-1" edge="1">
          <mxGeometry relative="1" as="geometry">
            <mxPoint x="430" y="380" as="sourcePoint" />
            <mxPoint x="590" y="380" as="targetPoint" />
          </mxGeometry>
        </mxCell>
        <mxCell id="IF9g0grAU2F7ckSNJoVl-21" value="1" style="resizable=0;html=1;whiteSpace=wrap;align=right;verticalAlign=bottom;" parent="IF9g0grAU2F7ckSNJoVl-20" connectable="0" vertex="1">
          <mxGeometry x="1" relative="1" as="geometry">
            <mxPoint x="225" y="20" as="offset" />
          </mxGeometry>
        </mxCell>
        <mxCell id="IF9g0grAU2F7ckSNJoVl-22" value="" style="endArrow=none;html=1;rounded=0;entryX=0;entryY=0.5;entryDx=0;entryDy=0;exitX=1;exitY=0.5;exitDx=0;exitDy=0;" parent="1" source="IF9g0grAU2F7ckSNJoVl-19" target="IF9g0grAU2F7ckSNJoVl-9" edge="1">
          <mxGeometry relative="1" as="geometry">
            <mxPoint x="640" y="360" as="sourcePoint" />
            <mxPoint x="590" y="390" as="targetPoint" />
          </mxGeometry>
        </mxCell>
        <mxCell id="IF9g0grAU2F7ckSNJoVl-23" value="N" style="resizable=0;html=1;whiteSpace=wrap;align=right;verticalAlign=bottom;" parent="IF9g0grAU2F7ckSNJoVl-22" connectable="0" vertex="1">
          <mxGeometry x="1" relative="1" as="geometry">
            <mxPoint x="-210" y="20" as="offset" />
          </mxGeometry>
        </mxCell>
        <mxCell id="Woq74OCpcJCkj7UidA-9-1" value="Gast" style="whiteSpace=wrap;html=1;align=center;" vertex="1" parent="1">
          <mxGeometry x="375" y="530" width="100" height="40" as="geometry" />
        </mxCell>
        <mxCell id="Woq74OCpcJCkj7UidA-9-3" value="Anzahl" style="ellipse;whiteSpace=wrap;html=1;align=center;" vertex="1" parent="1">
          <mxGeometry x="255" y="560" width="100" height="40" as="geometry" />
        </mxCell>
        <mxCell id="Woq74OCpcJCkj7UidA-9-5" value="Rechnungs-Nr" style="ellipse;whiteSpace=wrap;html=1;align=center;" vertex="1" parent="1">
          <mxGeometry x="375" y="600" width="100" height="40" as="geometry" />
        </mxCell>
        <mxCell id="Woq74OCpcJCkj7UidA-9-7" value="Gaeste-Nr" style="ellipse;whiteSpace=wrap;html=1;align=center;fontStyle=4;" vertex="1" parent="1">
          <mxGeometry x="250" y="500" width="100" height="40" as="geometry" />
        </mxCell>
        <mxCell id="Woq74OCpcJCkj7UidA-9-8" value="" style="endArrow=none;html=1;rounded=0;exitX=1;exitY=0.5;exitDx=0;exitDy=0;entryX=0;entryY=0;entryDx=0;entryDy=0;entryPerimeter=0;" edge="1" parent="1" source="Woq74OCpcJCkj7UidA-9-7" target="Woq74OCpcJCkj7UidA-9-1">
          <mxGeometry relative="1" as="geometry">
            <mxPoint x="345" y="620" as="sourcePoint" />
            <mxPoint x="505" y="620" as="targetPoint" />
          </mxGeometry>
        </mxCell>
        <mxCell id="Woq74OCpcJCkj7UidA-9-9" value="" style="endArrow=none;html=1;rounded=0;exitX=1;exitY=0.5;exitDx=0;exitDy=0;entryX=0;entryY=1;entryDx=0;entryDy=0;" edge="1" parent="1" source="Woq74OCpcJCkj7UidA-9-3" target="Woq74OCpcJCkj7UidA-9-1">
          <mxGeometry relative="1" as="geometry">
            <mxPoint x="345" y="620" as="sourcePoint" />
            <mxPoint x="505" y="620" as="targetPoint" />
          </mxGeometry>
        </mxCell>
        <mxCell id="Woq74OCpcJCkj7UidA-9-11" value="" style="endArrow=none;html=1;rounded=0;exitX=0.5;exitY=1;exitDx=0;exitDy=0;entryX=0.5;entryY=0;entryDx=0;entryDy=0;" edge="1" parent="1" source="Woq74OCpcJCkj7UidA-9-1" target="Woq74OCpcJCkj7UidA-9-5">
          <mxGeometry relative="1" as="geometry">
            <mxPoint x="345" y="620" as="sourcePoint" />
            <mxPoint x="505" y="620" as="targetPoint" />
          </mxGeometry>
        </mxCell>
        <mxCell id="Woq74OCpcJCkj7UidA-9-12" value="Rechnung" style="whiteSpace=wrap;html=1;align=center;" vertex="1" parent="1">
          <mxGeometry x="700" y="530" width="100" height="40" as="geometry" />
        </mxCell>
        <mxCell id="Woq74OCpcJCkj7UidA-9-13" value="Rechnungs-Nr" style="ellipse;whiteSpace=wrap;html=1;align=center;fontStyle=4;" vertex="1" parent="1">
          <mxGeometry x="700" y="600" width="100" height="40" as="geometry" />
        </mxCell>
        <mxCell id="Woq74OCpcJCkj7UidA-9-14" value="" style="endArrow=none;html=1;rounded=0;entryX=0.5;entryY=0;entryDx=0;entryDy=0;exitX=0.5;exitY=1;exitDx=0;exitDy=0;" edge="1" parent="1" source="Woq74OCpcJCkj7UidA-9-12" target="Woq74OCpcJCkj7UidA-9-13">
          <mxGeometry relative="1" as="geometry">
            <mxPoint x="470" y="630" as="sourcePoint" />
            <mxPoint x="630" y="630" as="targetPoint" />
          </mxGeometry>
        </mxCell>
        <mxCell id="Woq74OCpcJCkj7UidA-9-16" value="Betrag" style="ellipse;whiteSpace=wrap;html=1;align=center;" vertex="1" parent="1">
          <mxGeometry x="840" y="530" width="100" height="40" as="geometry" />
        </mxCell>
        <mxCell id="Woq74OCpcJCkj7UidA-9-17" value="" style="endArrow=none;html=1;rounded=0;entryX=0;entryY=0.5;entryDx=0;entryDy=0;exitX=1;exitY=0.5;exitDx=0;exitDy=0;" edge="1" parent="1" source="Woq74OCpcJCkj7UidA-9-12" target="Woq74OCpcJCkj7UidA-9-16">
          <mxGeometry relative="1" as="geometry">
            <mxPoint x="630" y="630" as="sourcePoint" />
            <mxPoint x="790" y="630" as="targetPoint" />
          </mxGeometry>
        </mxCell>
        <mxCell id="Woq74OCpcJCkj7UidA-9-18" value="Trinkgeld" style="ellipse;whiteSpace=wrap;html=1;align=center;" vertex="1" parent="1">
          <mxGeometry x="820" y="600" width="100" height="40" as="geometry" />
        </mxCell>
        <mxCell id="Woq74OCpcJCkj7UidA-9-19" value="" style="endArrow=none;html=1;rounded=0;exitX=1;exitY=1;exitDx=0;exitDy=0;entryX=0;entryY=0;entryDx=0;entryDy=0;" edge="1" parent="1" source="Woq74OCpcJCkj7UidA-9-12" target="Woq74OCpcJCkj7UidA-9-18">
          <mxGeometry relative="1" as="geometry">
            <mxPoint x="630" y="630" as="sourcePoint" />
            <mxPoint x="790" y="630" as="targetPoint" />
          </mxGeometry>
        </mxCell>
        <mxCell id="Woq74OCpcJCkj7UidA-9-20" value="Bestellung" style="whiteSpace=wrap;html=1;align=center;" vertex="1" parent="1">
          <mxGeometry x="330" y="820" width="100" height="40" as="geometry" />
        </mxCell>
        <mxCell id="Woq74OCpcJCkj7UidA-9-21" value="Rechnungs-Nr" style="ellipse;whiteSpace=wrap;html=1;align=center;" vertex="1" parent="1">
          <mxGeometry x="390" y="720" width="100" height="40" as="geometry" />
        </mxCell>
        <mxCell id="Woq74OCpcJCkj7UidA-9-22" value="Bestell-Nr" style="ellipse;whiteSpace=wrap;html=1;align=center;fontStyle=4;" vertex="1" parent="1">
          <mxGeometry x="290" y="730" width="100" height="40" as="geometry" />
        </mxCell>
        <mxCell id="Woq74OCpcJCkj7UidA-9-23" value="" style="endArrow=none;html=1;rounded=0;exitX=0.25;exitY=0;exitDx=0;exitDy=0;entryX=0.5;entryY=1;entryDx=0;entryDy=0;" edge="1" parent="1" source="Woq74OCpcJCkj7UidA-9-20" target="Woq74OCpcJCkj7UidA-9-22">
          <mxGeometry relative="1" as="geometry">
            <mxPoint x="260" y="750" as="sourcePoint" />
            <mxPoint x="420" y="750" as="targetPoint" />
          </mxGeometry>
        </mxCell>
        <mxCell id="Woq74OCpcJCkj7UidA-9-24" value="" style="endArrow=none;html=1;rounded=0;exitX=0.75;exitY=0;exitDx=0;exitDy=0;entryX=0.5;entryY=1;entryDx=0;entryDy=0;" edge="1" parent="1" source="Woq74OCpcJCkj7UidA-9-20" target="Woq74OCpcJCkj7UidA-9-21">
          <mxGeometry relative="1" as="geometry">
            <mxPoint x="260" y="750" as="sourcePoint" />
            <mxPoint x="460" y="770" as="targetPoint" />
          </mxGeometry>
        </mxCell>
        <mxCell id="Woq74OCpcJCkj7UidA-9-25" value="K-Elem-Nr" style="ellipse;whiteSpace=wrap;html=1;align=center;" vertex="1" parent="1">
          <mxGeometry x="200" y="820" width="100" height="40" as="geometry" />
        </mxCell>
        <mxCell id="Woq74OCpcJCkj7UidA-9-26" value="" style="endArrow=none;html=1;rounded=0;exitX=1;exitY=0.5;exitDx=0;exitDy=0;entryX=0;entryY=0.5;entryDx=0;entryDy=0;" edge="1" parent="1" source="Woq74OCpcJCkj7UidA-9-25" target="Woq74OCpcJCkj7UidA-9-20">
          <mxGeometry relative="1" as="geometry">
            <mxPoint x="440" y="720" as="sourcePoint" />
            <mxPoint x="600" y="720" as="targetPoint" />
          </mxGeometry>
        </mxCell>
        <mxCell id="Woq74OCpcJCkj7UidA-9-27" value="Karten-Elemente" style="whiteSpace=wrap;html=1;align=center;" vertex="1" parent="1">
          <mxGeometry x="700" y="820" width="100" height="40" as="geometry" />
        </mxCell>
        <mxCell id="Woq74OCpcJCkj7UidA-9-28" value="Elem-Name" style="ellipse;whiteSpace=wrap;html=1;align=center;" vertex="1" parent="1">
          <mxGeometry x="820" y="780" width="100" height="40" as="geometry" />
        </mxCell>
        <mxCell id="Woq74OCpcJCkj7UidA-9-29" value="Preis" style="ellipse;whiteSpace=wrap;html=1;align=center;" vertex="1" parent="1">
          <mxGeometry x="820" y="860" width="100" height="40" as="geometry" />
        </mxCell>
        <mxCell id="Woq74OCpcJCkj7UidA-9-30" value="Element-Art-Nr" style="ellipse;whiteSpace=wrap;html=1;align=center;" vertex="1" parent="1">
          <mxGeometry x="700" y="740" width="100" height="40" as="geometry" />
        </mxCell>
        <mxCell id="Woq74OCpcJCkj7UidA-9-32" value="K-Elem-Nr" style="ellipse;whiteSpace=wrap;html=1;align=center;fontStyle=4;" vertex="1" parent="1">
          <mxGeometry x="560" y="880" width="100" height="40" as="geometry" />
        </mxCell>
        <mxCell id="Woq74OCpcJCkj7UidA-9-33" value="" style="endArrow=none;html=1;rounded=0;exitX=1;exitY=0;exitDx=0;exitDy=0;entryX=0;entryY=1;entryDx=0;entryDy=0;" edge="1" parent="1" source="Woq74OCpcJCkj7UidA-9-32" target="Woq74OCpcJCkj7UidA-9-27">
          <mxGeometry relative="1" as="geometry">
            <mxPoint x="600" y="720" as="sourcePoint" />
            <mxPoint x="760" y="720" as="targetPoint" />
          </mxGeometry>
        </mxCell>
        <mxCell id="Woq74OCpcJCkj7UidA-9-34" value="" style="endArrow=none;html=1;rounded=0;exitX=0.5;exitY=1;exitDx=0;exitDy=0;entryX=0.5;entryY=0;entryDx=0;entryDy=0;" edge="1" parent="1" source="Woq74OCpcJCkj7UidA-9-30" target="Woq74OCpcJCkj7UidA-9-27">
          <mxGeometry relative="1" as="geometry">
            <mxPoint x="600" y="720" as="sourcePoint" />
            <mxPoint x="760" y="720" as="targetPoint" />
          </mxGeometry>
        </mxCell>
        <mxCell id="Woq74OCpcJCkj7UidA-9-35" value="" style="endArrow=none;html=1;rounded=0;entryX=0;entryY=0;entryDx=0;entryDy=0;exitX=1;exitY=0.5;exitDx=0;exitDy=0;" edge="1" parent="1" source="Woq74OCpcJCkj7UidA-9-27" target="Woq74OCpcJCkj7UidA-9-29">
          <mxGeometry relative="1" as="geometry">
            <mxPoint x="600" y="720" as="sourcePoint" />
            <mxPoint x="760" y="720" as="targetPoint" />
          </mxGeometry>
        </mxCell>
        <mxCell id="Woq74OCpcJCkj7UidA-9-36" value="" style="endArrow=none;html=1;rounded=0;entryX=0;entryY=0.5;entryDx=0;entryDy=0;exitX=1;exitY=0;exitDx=0;exitDy=0;" edge="1" parent="1" source="Woq74OCpcJCkj7UidA-9-27" target="Woq74OCpcJCkj7UidA-9-28">
          <mxGeometry relative="1" as="geometry">
            <mxPoint x="600" y="720" as="sourcePoint" />
            <mxPoint x="760" y="720" as="targetPoint" />
          </mxGeometry>
        </mxCell>
        <mxCell id="Woq74OCpcJCkj7UidA-9-38" value="Element-Art" style="whiteSpace=wrap;html=1;align=center;" vertex="1" parent="1">
          <mxGeometry x="325" y="1000" width="100" height="40" as="geometry" />
        </mxCell>
        <mxCell id="Woq74OCpcJCkj7UidA-9-39" value="Art-Name" style="ellipse;whiteSpace=wrap;html=1;align=center;" vertex="1" parent="1">
          <mxGeometry x="455" y="1060" width="100" height="40" as="geometry" />
        </mxCell>
        <mxCell id="Woq74OCpcJCkj7UidA-9-40" value="Zustaendiger" style="ellipse;whiteSpace=wrap;html=1;align=center;" vertex="1" parent="1">
          <mxGeometry x="325" y="1070" width="100" height="40" as="geometry" />
        </mxCell>
        <mxCell id="Woq74OCpcJCkj7UidA-9-41" value="Emenent-Art-Nr" style="ellipse;whiteSpace=wrap;html=1;align=center;fontStyle=4;" vertex="1" parent="1">
          <mxGeometry x="205" y="1040" width="100" height="40" as="geometry" />
        </mxCell>
        <mxCell id="Woq74OCpcJCkj7UidA-9-42" value="" style="endArrow=none;html=1;rounded=0;exitX=1;exitY=0;exitDx=0;exitDy=0;entryX=0;entryY=0.75;entryDx=0;entryDy=0;" edge="1" parent="1" source="Woq74OCpcJCkj7UidA-9-41" target="Woq74OCpcJCkj7UidA-9-38">
          <mxGeometry relative="1" as="geometry">
            <mxPoint x="345" y="820" as="sourcePoint" />
            <mxPoint x="505" y="820" as="targetPoint" />
          </mxGeometry>
        </mxCell>
        <mxCell id="Woq74OCpcJCkj7UidA-9-43" value="" style="endArrow=none;html=1;rounded=0;exitX=0.5;exitY=0;exitDx=0;exitDy=0;entryX=0.5;entryY=1;entryDx=0;entryDy=0;" edge="1" parent="1" source="Woq74OCpcJCkj7UidA-9-40" target="Woq74OCpcJCkj7UidA-9-38">
          <mxGeometry relative="1" as="geometry">
            <mxPoint x="345" y="820" as="sourcePoint" />
            <mxPoint x="505" y="820" as="targetPoint" />
          </mxGeometry>
        </mxCell>
        <mxCell id="Woq74OCpcJCkj7UidA-9-44" value="" style="endArrow=none;html=1;rounded=0;entryX=0;entryY=0;entryDx=0;entryDy=0;exitX=1;exitY=0.5;exitDx=0;exitDy=0;" edge="1" parent="1" source="Woq74OCpcJCkj7UidA-9-38" target="Woq74OCpcJCkj7UidA-9-39">
          <mxGeometry relative="1" as="geometry">
            <mxPoint x="345" y="820" as="sourcePoint" />
            <mxPoint x="505" y="820" as="targetPoint" />
          </mxGeometry>
        </mxCell>
        <mxCell id="Woq74OCpcJCkj7UidA-9-45" value="sitzt an" style="shape=rhombus;perimeter=rhombusPerimeter;whiteSpace=wrap;html=1;align=center;" vertex="1" parent="1">
          <mxGeometry x="540" y="430" width="120" height="60" as="geometry" />
        </mxCell>
        <mxCell id="Woq74OCpcJCkj7UidA-9-48" value="" style="endArrow=none;html=1;rounded=0;entryX=1;entryY=0.5;entryDx=0;entryDy=0;exitX=0;exitY=0.5;exitDx=0;exitDy=0;" edge="1" parent="1" source="Woq74OCpcJCkj7UidA-9-45" target="Woq74OCpcJCkj7UidA-9-1">
          <mxGeometry relative="1" as="geometry">
            <mxPoint x="490" y="450" as="sourcePoint" />
            <mxPoint x="650" y="450" as="targetPoint" />
          </mxGeometry>
        </mxCell>
        <mxCell id="Woq74OCpcJCkj7UidA-9-49" value="1" style="resizable=0;html=1;whiteSpace=wrap;align=right;verticalAlign=bottom;" connectable="0" vertex="1" parent="Woq74OCpcJCkj7UidA-9-48">
          <mxGeometry x="1" relative="1" as="geometry">
            <mxPoint x="255" y="-160" as="offset" />
          </mxGeometry>
        </mxCell>
        <mxCell id="Woq74OCpcJCkj7UidA-9-50" value="Hat " style="shape=rhombus;perimeter=rhombusPerimeter;whiteSpace=wrap;html=1;align=center;" vertex="1" parent="1">
          <mxGeometry x="520" y="520" width="120" height="60" as="geometry" />
        </mxCell>
        <mxCell id="Woq74OCpcJCkj7UidA-9-52" value="" style="endArrow=none;html=1;rounded=0;entryX=1;entryY=0.5;entryDx=0;entryDy=0;" edge="1" parent="1" source="Woq74OCpcJCkj7UidA-9-50" target="Woq74OCpcJCkj7UidA-9-1">
          <mxGeometry relative="1" as="geometry">
            <mxPoint x="490" y="450" as="sourcePoint" />
            <mxPoint x="650" y="450" as="targetPoint" />
          </mxGeometry>
        </mxCell>
        <mxCell id="Woq74OCpcJCkj7UidA-9-53" value="1" style="resizable=0;html=1;whiteSpace=wrap;align=right;verticalAlign=bottom;" connectable="0" vertex="1" parent="Woq74OCpcJCkj7UidA-9-52">
          <mxGeometry x="1" relative="1" as="geometry">
            <mxPoint x="25" as="offset" />
          </mxGeometry>
        </mxCell>
        <mxCell id="Woq74OCpcJCkj7UidA-9-54" value="" style="endArrow=none;html=1;rounded=0;entryX=0;entryY=0.5;entryDx=0;entryDy=0;" edge="1" parent="1" source="Woq74OCpcJCkj7UidA-9-50" target="Woq74OCpcJCkj7UidA-9-12">
          <mxGeometry relative="1" as="geometry">
            <mxPoint x="490" y="450" as="sourcePoint" />
            <mxPoint x="650" y="450" as="targetPoint" />
          </mxGeometry>
        </mxCell>
        <mxCell id="Woq74OCpcJCkj7UidA-9-55" value="1" style="resizable=0;html=1;whiteSpace=wrap;align=right;verticalAlign=bottom;" connectable="0" vertex="1" parent="Woq74OCpcJCkj7UidA-9-54">
          <mxGeometry x="1" relative="1" as="geometry" />
        </mxCell>
        <mxCell id="Woq74OCpcJCkj7UidA-9-56" value="Hat" style="shape=rhombus;perimeter=rhombusPerimeter;whiteSpace=wrap;html=1;align=center;" vertex="1" parent="1">
          <mxGeometry x="540" y="670" width="120" height="60" as="geometry" />
        </mxCell>
        <mxCell id="Woq74OCpcJCkj7UidA-9-57" value="" style="endArrow=none;html=1;rounded=0;entryX=0;entryY=0.5;entryDx=0;entryDy=0;exitX=1;exitY=0.5;exitDx=0;exitDy=0;" edge="1" parent="1" source="Woq74OCpcJCkj7UidA-9-56" target="Woq74OCpcJCkj7UidA-9-12">
          <mxGeometry relative="1" as="geometry">
            <mxPoint x="490" y="600" as="sourcePoint" />
            <mxPoint x="650" y="600" as="targetPoint" />
          </mxGeometry>
        </mxCell>
        <mxCell id="Woq74OCpcJCkj7UidA-9-58" value="1" style="resizable=0;html=1;whiteSpace=wrap;align=right;verticalAlign=bottom;" connectable="0" vertex="1" parent="Woq74OCpcJCkj7UidA-9-57">
          <mxGeometry x="1" relative="1" as="geometry">
            <mxPoint x="10" y="40" as="offset" />
          </mxGeometry>
        </mxCell>
        <mxCell id="Woq74OCpcJCkj7UidA-9-59" value="" style="endArrow=none;html=1;rounded=0;entryX=1;entryY=0.5;entryDx=0;entryDy=0;exitX=0;exitY=0.5;exitDx=0;exitDy=0;" edge="1" parent="1" source="Woq74OCpcJCkj7UidA-9-56" target="Woq74OCpcJCkj7UidA-9-20">
          <mxGeometry relative="1" as="geometry">
            <mxPoint x="490" y="600" as="sourcePoint" />
            <mxPoint x="650" y="600" as="targetPoint" />
          </mxGeometry>
        </mxCell>
        <mxCell id="Woq74OCpcJCkj7UidA-9-60" value="N" style="resizable=0;html=1;whiteSpace=wrap;align=right;verticalAlign=bottom;" connectable="0" vertex="1" parent="Woq74OCpcJCkj7UidA-9-59">
          <mxGeometry x="1" relative="1" as="geometry">
            <mxPoint x="10" y="-20" as="offset" />
          </mxGeometry>
        </mxCell>
        <mxCell id="Woq74OCpcJCkj7UidA-9-61" value="Hat" style="shape=rhombus;perimeter=rhombusPerimeter;whiteSpace=wrap;html=1;align=center;" vertex="1" parent="1">
          <mxGeometry x="500" y="810" width="120" height="60" as="geometry" />
        </mxCell>
        <mxCell id="Woq74OCpcJCkj7UidA-9-63" value="" style="endArrow=none;html=1;rounded=0;entryX=1;entryY=0.5;entryDx=0;entryDy=0;exitX=0;exitY=0.5;exitDx=0;exitDy=0;" edge="1" parent="1" source="Woq74OCpcJCkj7UidA-9-61" target="Woq74OCpcJCkj7UidA-9-20">
          <mxGeometry relative="1" as="geometry">
            <mxPoint x="470" y="720" as="sourcePoint" />
            <mxPoint x="630" y="720" as="targetPoint" />
          </mxGeometry>
        </mxCell>
        <mxCell id="Woq74OCpcJCkj7UidA-9-64" value="1" style="resizable=0;html=1;whiteSpace=wrap;align=right;verticalAlign=bottom;" connectable="0" vertex="1" parent="Woq74OCpcJCkj7UidA-9-63">
          <mxGeometry x="1" relative="1" as="geometry">
            <mxPoint x="270" as="offset" />
          </mxGeometry>
        </mxCell>
        <mxCell id="Woq74OCpcJCkj7UidA-9-65" value="" style="endArrow=none;html=1;rounded=0;entryX=0;entryY=0.5;entryDx=0;entryDy=0;exitX=1;exitY=0.5;exitDx=0;exitDy=0;" edge="1" parent="1" source="Woq74OCpcJCkj7UidA-9-61" target="Woq74OCpcJCkj7UidA-9-27">
          <mxGeometry relative="1" as="geometry">
            <mxPoint x="470" y="720" as="sourcePoint" />
            <mxPoint x="630" y="720" as="targetPoint" />
          </mxGeometry>
        </mxCell>
        <mxCell id="Woq74OCpcJCkj7UidA-9-66" value="N" style="resizable=0;html=1;whiteSpace=wrap;align=right;verticalAlign=bottom;" connectable="0" vertex="1" parent="Woq74OCpcJCkj7UidA-9-65">
          <mxGeometry x="1" relative="1" as="geometry">
            <mxPoint x="-250" y="20" as="offset" />
          </mxGeometry>
        </mxCell>
        <mxCell id="Woq74OCpcJCkj7UidA-9-67" value="Ist zugeordnet" style="shape=rhombus;perimeter=rhombusPerimeter;whiteSpace=wrap;html=1;align=center;" vertex="1" parent="1">
          <mxGeometry x="630" y="990" width="120" height="60" as="geometry" />
        </mxCell>
        <mxCell id="Woq74OCpcJCkj7UidA-9-68" value="" style="endArrow=none;html=1;rounded=0;entryX=0.5;entryY=1;entryDx=0;entryDy=0;exitX=1;exitY=0.5;exitDx=0;exitDy=0;" edge="1" parent="1" source="Woq74OCpcJCkj7UidA-9-67" target="Woq74OCpcJCkj7UidA-9-27">
          <mxGeometry relative="1" as="geometry">
            <mxPoint x="470" y="810" as="sourcePoint" />
            <mxPoint x="630" y="810" as="targetPoint" />
          </mxGeometry>
        </mxCell>
        <mxCell id="Woq74OCpcJCkj7UidA-9-69" value="1" style="resizable=0;html=1;whiteSpace=wrap;align=right;verticalAlign=bottom;" connectable="0" vertex="1" parent="Woq74OCpcJCkj7UidA-9-68">
          <mxGeometry x="1" relative="1" as="geometry">
            <mxPoint x="-310" y="160" as="offset" />
          </mxGeometry>
        </mxCell>
        <mxCell id="Woq74OCpcJCkj7UidA-9-70" value="" style="endArrow=none;html=1;rounded=0;entryX=1;entryY=0.5;entryDx=0;entryDy=0;exitX=0;exitY=0.5;exitDx=0;exitDy=0;" edge="1" parent="1" source="Woq74OCpcJCkj7UidA-9-67" target="Woq74OCpcJCkj7UidA-9-38">
          <mxGeometry relative="1" as="geometry">
            <mxPoint x="605" y="980" as="sourcePoint" />
            <mxPoint x="425" y="990" as="targetPoint" />
          </mxGeometry>
        </mxCell>
        <mxCell id="Woq74OCpcJCkj7UidA-9-71" value="N" style="resizable=0;html=1;whiteSpace=wrap;align=right;verticalAlign=bottom;" connectable="0" vertex="1" parent="Woq74OCpcJCkj7UidA-9-70">
          <mxGeometry x="1" relative="1" as="geometry">
            <mxPoint x="345" y="-140" as="offset" />
          </mxGeometry>
        </mxCell>
        <mxCell id="Woq74OCpcJCkj7UidA-9-72" value="Besonderheiten" style="ellipse;whiteSpace=wrap;html=1;align=center;" vertex="1" parent="1">
          <mxGeometry x="240" y="900" width="100" height="40" as="geometry" />
        </mxCell>
        <mxCell id="Woq74OCpcJCkj7UidA-9-73" value="" style="endArrow=none;html=1;rounded=0;exitX=0.5;exitY=0;exitDx=0;exitDy=0;entryX=0.25;entryY=1;entryDx=0;entryDy=0;" edge="1" parent="1" source="Woq74OCpcJCkj7UidA-9-72" target="Woq74OCpcJCkj7UidA-9-20">
          <mxGeometry relative="1" as="geometry">
            <mxPoint x="430" y="900" as="sourcePoint" />
            <mxPoint x="590" y="900" as="targetPoint" />
          </mxGeometry>
        </mxCell>
        <mxCell id="Woq74OCpcJCkj7UidA-9-74" value="Tisch-Nr" style="ellipse;whiteSpace=wrap;html=1;align=center;" vertex="1" parent="1">
          <mxGeometry x="355" y="440" width="100" height="40" as="geometry" />
        </mxCell>
        <mxCell id="Woq74OCpcJCkj7UidA-9-75" value="" style="endArrow=none;html=1;rounded=0;exitX=0.5;exitY=1;exitDx=0;exitDy=0;entryX=0.5;entryY=0;entryDx=0;entryDy=0;" edge="1" parent="1" source="Woq74OCpcJCkj7UidA-9-74" target="Woq74OCpcJCkj7UidA-9-1">
          <mxGeometry relative="1" as="geometry">
            <mxPoint x="310" y="680" as="sourcePoint" />
            <mxPoint x="470" y="680" as="targetPoint" />
          </mxGeometry>
        </mxCell>
        <mxCell id="Woq74OCpcJCkj7UidA-9-77" value="" style="endArrow=none;html=1;rounded=0;entryX=0.25;entryY=1;entryDx=0;entryDy=0;exitX=1;exitY=0.5;exitDx=0;exitDy=0;" edge="1" parent="1" source="Woq74OCpcJCkj7UidA-9-45" target="IF9g0grAU2F7ckSNJoVl-9">
          <mxGeometry relative="1" as="geometry">
            <mxPoint x="310" y="680" as="sourcePoint" />
            <mxPoint x="470" y="680" as="targetPoint" />
          </mxGeometry>
        </mxCell>
        <mxCell id="Woq74OCpcJCkj7UidA-9-78" value="N" style="resizable=0;html=1;whiteSpace=wrap;align=right;verticalAlign=bottom;" connectable="0" vertex="1" parent="Woq74OCpcJCkj7UidA-9-77">
          <mxGeometry x="1" relative="1" as="geometry">
            <mxPoint x="-235" y="160" as="offset" />
          </mxGeometry>
        </mxCell>
        <mxCell id="Woq74OCpcJCkj7UidA-9-79" value="Personal-Nr" style="ellipse;whiteSpace=wrap;html=1;align=center;" vertex="1" parent="1">
          <mxGeometry x="700" y="470" width="100" height="40" as="geometry" />
        </mxCell>
        <mxCell id="Woq74OCpcJCkj7UidA-9-80" value="" style="endArrow=none;html=1;rounded=0;exitX=0.5;exitY=1;exitDx=0;exitDy=0;entryX=0.5;entryY=0;entryDx=0;entryDy=0;" edge="1" parent="1" source="Woq74OCpcJCkj7UidA-9-79" target="Woq74OCpcJCkj7UidA-9-12">
          <mxGeometry relative="1" as="geometry">
            <mxPoint x="660" y="680" as="sourcePoint" />
            <mxPoint x="820" y="680" as="targetPoint" />
          </mxGeometry>
        </mxCell>
        <mxCell id="Woq74OCpcJCkj7UidA-9-81" value="ist Zugeordnet" style="shape=rhombus;perimeter=rhombusPerimeter;whiteSpace=wrap;html=1;align=center;" vertex="1" parent="1">
          <mxGeometry x="920" y="400" width="120" height="60" as="geometry" />
        </mxCell>
        <mxCell id="Woq74OCpcJCkj7UidA-9-82" value="" style="endArrow=none;html=1;rounded=0;entryX=1;entryY=0;entryDx=0;entryDy=0;exitX=0.5;exitY=1;exitDx=0;exitDy=0;" edge="1" parent="1" source="Woq74OCpcJCkj7UidA-9-81" target="Woq74OCpcJCkj7UidA-9-12">
          <mxGeometry relative="1" as="geometry">
            <mxPoint x="660" y="680" as="sourcePoint" />
            <mxPoint x="820" y="680" as="targetPoint" />
          </mxGeometry>
        </mxCell>
        <mxCell id="Woq74OCpcJCkj7UidA-9-83" value="1" style="resizable=0;html=1;whiteSpace=wrap;align=right;verticalAlign=bottom;" connectable="0" vertex="1" parent="Woq74OCpcJCkj7UidA-9-82">
          <mxGeometry x="1" relative="1" as="geometry">
            <mxPoint x="-324" y="-200" as="offset" />
          </mxGeometry>
        </mxCell>
        <mxCell id="Woq74OCpcJCkj7UidA-9-86" value="" style="endArrow=none;html=1;rounded=0;entryX=1;entryY=0;entryDx=0;entryDy=0;exitX=0.5;exitY=0;exitDx=0;exitDy=0;edgeStyle=elbowEdgeStyle;elbow=vertical;" edge="1" parent="1" source="Woq74OCpcJCkj7UidA-9-81" target="IF9g0grAU2F7ckSNJoVl-1">
          <mxGeometry relative="1" as="geometry">
            <mxPoint x="660" y="600" as="sourcePoint" />
            <mxPoint x="820" y="600" as="targetPoint" />
            <Array as="points">
              <mxPoint x="720" y="220" />
            </Array>
          </mxGeometry>
        </mxCell>
        <mxCell id="Woq74OCpcJCkj7UidA-9-87" value="N" style="resizable=0;html=1;whiteSpace=wrap;align=right;verticalAlign=bottom;" connectable="0" vertex="1" parent="Woq74OCpcJCkj7UidA-9-86">
          <mxGeometry x="1" relative="1" as="geometry">
            <mxPoint x="335" y="200" as="offset" />
          </mxGeometry>
        </mxCell>
      </root>
    </mxGraphModel>
  </diagram>
</mxfile>
